<?xml version="1.0" encoding="utf-8"?>
<!-- Generator: Adobe Illustrator 14.0.0, SVG Export Plug-In . SVG Version: 6.00 Build 43363)  -->
<!DOCTYPE svg PUBLIC "-//W3C//DTD SVG 1.1//EN" "http://www.w3.org/Graphics/SVG/1.1/DTD/svg11.dtd">
<svg version="1.1" id="Modo_de_aislamiento" xmlns="http://www.w3.org/2000/svg" xmlns:xlink="http://www.w3.org/1999/xlink"
	 x="0px" y="0px" width="40px" height="40px" viewBox="0 0 40 40" enable-background="new 0 0 40 40" xml:space="preserve">
<g>
	<path fill="#91BD26" d="M1.436,33.914l-0.583-1.421c-0.508-1.528-0.604-3.126-0.78-4.708c-0.013-0.72-0.024-1.439-0.036-2.16
		c-0.004-0.191-0.004-0.379-0.007-0.573c-0.004-0.162-0.008-0.319-0.012-0.481C0.064,24.009,0.084,23.443,0,22.881
		c0.077-1.363,0.064-2.726,0.007-4.088c0.053-0.257,0.053-0.511,0-0.765c0.073-0.617,0.042-1.233,0.011-1.85
		c0.081-0.564,0.045-1.135,0.019-1.708c0.081-1.492,0.081-2.99,0.274-4.477C0.419,9.151,0.631,8.335,0.819,7.51
		c0.396-0.885,0.739-1.8,1.208-2.648c0.28-0.508,0.761-0.908,1.15-1.359C5.469,1.233,8.287,0.271,11.45,0.16
		c0.197-0.008,0.385-0.066,0.583-0.1c2.891-0.013,5.781-0.04,8.672-0.036c2.774,0.003,5.55-0.051,8.323,0.146
		c1.517,0.107,2.979,0.453,4.398,0.989l0.028-0.019c0.049,0.03,0.1,0.062,0.154,0.092c0.015,0.022,0.034,0.03,0.06,0.011
		c0.066,0.109,0.175,0.124,0.282,0.135l-0.011,0.004c0.162,0.084,0.323,0.169,0.481,0.253c1.805,1.143,3.299,2.579,4.199,4.558
		c0.162,0.353,0.308,0.72,0.462,1.079c0.609,1.808,0.757,3.686,0.834,5.573c0.028,1.263,0.054,2.524,0.084,3.787
		c0,2.329-0.004,4.662-0.004,6.99l-0.003,0.124c0,0.272-0.004,0.547-0.004,0.819c-0.004,0.228-0.004,0.459-0.008,0.686
		c-0.114,0.596-0.058,1.197-0.069,1.797c-0.004,0.124-0.007,0.246-0.015,0.371c-0.011,0.342-0.019,0.68-0.026,1.019
		c-0.113,0.323-0.081,0.66-0.092,0.99c-0.212,1.679-0.613,3.295-1.421,4.8c-0.35,0.654-0.793,1.243-1.22,1.838
		c-0.812,0.855-1.707,1.605-2.707,2.229c-0.081,0.043-0.166,0.084-0.247,0.128l0.004-0.004c-1.385,0.673-2.861,1.058-4.37,1.312
		c-0.754,0.015-1.474,0.319-2.235,0.231c-0.506-0.257-1.024-0.038-1.538-0.05c-0.761-0.023-1.524,0.032-2.286,0.054l-6.986,0.007
		c-1.579-0.045-3.158-0.062-4.731-0.137c-1.876-0.094-3.746-0.256-5.486-1.068c-0.404-0.188-0.801-0.385-1.201-0.577
		c-0.041-0.073-0.1-0.114-0.184-0.107c-0.03-0.011-0.066-0.015-0.1-0.011c-0.43-0.367-0.874-0.716-1.289-1.098
		C2.817,36.1,2.036,35.076,1.436,33.914 M3.633,19.472c0,0.753,0,1.503,0,2.259c-0.004,0.611-0.03,1.22-0.015,1.827
		c0.034,1.259-0.073,2.519,0.118,3.774c-0.045,0.962,0.051,1.917,0.228,2.859c0.261,1.381,0.743,2.66,1.782,3.662
		c1.156,1.385,2.718,2.009,4.432,2.208c3.772,0.448,7.559,0.274,11.343,0.256c2.226,0.03,4.445,0.1,6.663-0.12
		c0.577,0.096,1.109-0.203,1.656-0.22c1.036-0.03,1.951-0.346,2.829-0.853l-0.004,0.003c0.077-0.043,0.154-0.088,0.231-0.131
		c0.908-0.543,1.646-1.257,2.156-2.197c0.522-0.72,0.79-1.549,0.934-2.398c0.543-3.148,0.363-6.332,0.363-9.504
		c0.042-2.175,0.042-4.346-0.015-6.517c-0.011-0.727,0.081-1.458-0.102-2.174c0.102-0.686-0.049-1.363-0.141-2.028
		c-0.201-1.424-0.616-2.783-1.648-3.87c-0.604-0.805-1.4-1.359-2.314-1.774c-1.731-0.797-3.595-0.863-5.439-0.893
		c-5.044-0.081-10.091-0.162-15.134,0.081C9.745,3.804,7.994,4.174,6.52,5.328c-2.056,1.609-2.66,3.861-2.765,6.325
		c-0.134,1.813-0.166,3.625-0.122,5.443V19.472z"/>
	<path fill="#91BD26" d="M11.467,25.71c-0.562-0.966-1.062-1.957-1.374-3.038c-0.286-1.051-0.324-2.124-0.359-3.203
		c0.085-0.838,0.231-1.664,0.429-2.479c0.195-0.511,0.396-1.022,0.596-1.536l-0.004,0.007c0.092-0.051,0.115-0.143,0.132-0.238
		l-0.009,0.007c0.102-0.056,0.113-0.15,0.127-0.246l-0.007,0.011c0.096-0.042,0.111-0.126,0.124-0.214
		c0.354-0.489,0.699-0.976,1.054-1.46c0.707-0.801,1.577-1.427,2.374-2.131c0.605-0.265,1.201-0.554,1.817-0.797
		c0.933-0.361,1.91-0.569,2.906-0.658c0.474-0.004,0.947-0.004,1.417-0.004c0.562,0.026,1.116,0.126,1.663,0.254
		c1.478,0.364,2.803,1.032,4.022,1.928c0.011,0.03,0.03,0.038,0.056,0.034l0.028-0.011c0.004,0.077,0.049,0.107,0.122,0.113
		c0,0-0.015,0.026-0.015,0.03c1.88,1.671,3.122,3.71,3.541,6.215c0.059,0.329,0.109,0.652,0.162,0.979
		c0.04,1.755-0.315,3.438-0.945,5.065c-0.086,0.211-0.22,0.4-0.333,0.6c-0.75,1.194-1.628,2.284-2.733,3.173
		c-1.193,0.863-2.501,1.49-3.922,1.87c-0.896,0.055-1.767,0.478-2.66,0.352c-2.043-0.29-4.019-0.782-5.731-2.067
		C12.969,27.539,12.19,26.665,11.467,25.71 M15.008,15.574c-0.03,0.036-0.065,0.069-0.096,0.105c-0.771,0.9-1.29,1.914-1.447,3.098
		c-0.334,1.622-0.062,3.139,0.793,4.55c1.746,3.133,5.855,4.261,8.96,2.457c0.073-0.026,0.15-0.047,0.212-0.088
		c1.312-0.808,2.263-1.921,2.802-3.372c1.051-2.733,0.139-5.932-2.174-7.61c-2.583-2.188-6.879-1.778-9.046,0.857L15.008,15.574z"/>
	<path fill="#91BD26" d="M32.427,10.959c-1.543,1.25-2.924,1.024-4.011-0.656c-0.346-1.096-0.195-2.073,0.724-2.833
		c0.9-0.75,2.207-0.701,3.092,0.077c0.846,0.748,1.04,2.017,0.449,3.015C32.6,10.696,32.512,10.824,32.427,10.959"/>
</g>
</svg>
