<?xml version="1.0" encoding="utf-8"?>
<!-- Generator: Adobe Illustrator 14.0.0, SVG Export Plug-In . SVG Version: 6.00 Build 43363)  -->
<!DOCTYPE svg PUBLIC "-//W3C//DTD SVG 1.1//EN" "http://www.w3.org/Graphics/SVG/1.1/DTD/svg11.dtd">
<svg version="1.1" id="Modo_de_aislamiento" xmlns="http://www.w3.org/2000/svg" xmlns:xlink="http://www.w3.org/1999/xlink"
	 x="0px" y="0px" width="40px" height="40px" viewBox="0 0 40 40" enable-background="new 0 0 40 40" xml:space="preserve">
<path fill="#91BD26" d="M39.727,16.202c0.004,0.08,0.011,0.16,0.019,0.24c0.051,0.113,0.097,0.232,0.146,0.342
	c0.26,3.273,0.087,6.507-0.915,9.66c-1.199,2.74-2.66,5.299-4.827,7.436c-6.006,5.915-15.031,7.481-22.666,3.848
	c-0.692-0.331-1.302-0.403-2.048-0.197C6.367,38.37,3.283,39.146,0,40c0.398-1.529,0.771-2.954,1.143-4.374
	c0.091-0.347,0.191-0.689,0.31-1.024c0.999-2.786,1.601-5.514-0.177-8.308c-0.72-1.13-0.889-2.577-1.018-3.956
	C-0.378,16.674,1.184,11.636,4.682,7.16c2.965-3.316,6.532-5.711,10.929-6.648c6.834-1.45,12.877,0.186,18.079,4.843
	c0.234,0.21,0.479,0.411,0.716,0.617C37.103,8.907,38.934,12.287,39.727,16.202 M3.731,17.629
	c-0.677,3.887,0.241,7.455,2.218,10.793c0.326,0.552,0.428,0.997,0.26,1.649c-0.436,1.694-1.079,3.346-1.324,5.173
	c1.674-0.418,3.244-0.715,4.738-1.23c1.016-0.35,1.766-0.125,2.665,0.324c6.14,3.069,12.178,2.746,17.66-1.344
	c5.158-3.844,7.454-9.109,6.357-15.601c0.189-1.111-0.279-2.11-0.64-3.095C31.602,3.092,17.395-0.295,8.703,7.879
	C5.896,10.521,4.115,13.739,3.731,17.629"/>
<path fill="#91BD26" d="M10.304,17.584c-0.636-2.136-0.49-4.14,1.023-5.906c1.414-1.653,3.21-1.413,4.04,0.541
	c0.25,0.578,0.441,1.191,0.759,1.729c0.851,1.457,0.628,2.688-0.647,3.768c-0.112,0.093-0.157,0.26-0.237,0.388
	c-0.321,0.37-0.047,0.667,0.139,0.956c1.573,2.528,3.707,4.413,6.485,5.583c0.716,0.301,1.103,0.033,1.531-0.458
	c1.871-2.121,1.878-2.117,4.478-0.845c0.215,0.102,0.453,0.176,0.64,0.312c0.587,0.418,1.651,0.392,1.67,1.329
	c0.026,1.108-0.227,2.208-1.16,3.004c-1.586,1.348-3.417,1.682-5.383,1.152C17.322,27.437,13.139,23.271,10.304,17.584"/>
</svg>
