<?xml version="1.0" encoding="utf-8"?>
<!-- Generator: Adobe Illustrator 14.0.0, SVG Export Plug-In . SVG Version: 6.00 Build 43363)  -->
<!DOCTYPE svg PUBLIC "-//W3C//DTD SVG 1.1//EN" "http://www.w3.org/Graphics/SVG/1.1/DTD/svg11.dtd">
<svg version="1.1" id="Capa_1" xmlns="http://www.w3.org/2000/svg" xmlns:xlink="http://www.w3.org/1999/xlink" x="0px" y="0px"
	 width="134px" height="167px" viewBox="189 171.329 134 167" enable-background="new 189 171.329 134 167" xml:space="preserve">
<rect x="217.823" y="209.286" transform="matrix(0.7269 -0.6867 0.6867 0.7269 -88.5617 231.6439)" fill="#A576BA" width="58.294" height="35.773"/>
<rect x="271.005" y="207.848" transform="matrix(0.7269 -0.6867 0.6867 0.7269 -70.5671 262.7589)" fill="#A576BA" width="48.163" height="24.513"/>
<g id="Out_line">
	<path fill="#45145B" d="M269.959,234.061l10.588,10.589c3.405,3.397,8.918,3.397,12.323,0l29.313-29.313
		c1.09-1.091,1.09-2.858,0-3.948l-39.083-39.083c-1.091-1.089-2.858-1.089-3.948,0l-20.359,20.359l-10.588-10.588
		c-3.406-3.397-8.918-3.397-12.323,0l-27.338,27.338l-6.401-6.401c-1.09-1.09-2.857-1.09-3.948,0l-8.375,8.375
		c-1.09,1.09-1.09,2.858,0,3.948l53.86,53.858l-3.609,3.609c-0.523,0.524-0.818,1.234-0.818,1.975v15.594l-2.792,2.791l-0.817-0.817
		c-1.091-1.089-2.858-1.089-3.949,0l-41.875,41.875l3.948,3.948l39.901-39.901l26.761,26.761l-9.193,9.192l3.948,3.948
		l11.167-11.166c1.09-1.091,1.09-2.858,0-3.949l-3.609-3.609l15.594-15.593l25.942,25.942c1.09,1.09,2.857,1.09,3.948,0l8.375-8.375
		c1.09-1.09,1.09-2.857,0-3.948l-25.942-25.942l3.608-3.609c1.091-1.09,1.091-2.857,0-3.948l-22.333-22.333
		c-1.091-1.09-2.857-1.09-3.948,0l-0.244,0.244c-0.379-3.264-1.854-6.302-4.183-8.619c-1.09-1.09-2.857-1.09-3.948,0L256,256.872
		l-4.427-4.426L269.959,234.061z M283.339,229.534l-2.792,2.792c-0.757,0.756-1.367,1.647-1.801,2.626l-4.839-4.839l5.005-5.005
		c1.222-1.222,3.204-1.222,4.427,0C284.56,226.33,284.56,228.312,283.339,229.534z M281.125,178.227l35.136,35.136l-27.339,27.338
		c-1.223,1.222-3.204,1.222-4.427,0c-1.223-1.223-1.223-3.205,0-4.427l2.792-2.792c3.402-3.403,3.402-8.92,0-12.323l-24.547-24.546
		L281.125,178.227z M239.828,186.024c1.223-1.221,3.204-1.221,4.427,0l33.333,33.333c-0.979,0.434-1.868,1.045-2.624,1.802
		l-35.714,35.713l-35.135-35.134L239.828,186.024z M200.167,208.936l4.427,4.427l-4.427,4.427l-4.427-4.427L200.167,208.936z
		 M310.677,319.445l-4.428,4.428l-23.968-23.969l4.427-4.427L310.677,319.445z M269.959,267.56l18.386,18.386l-10.011,10.012
		l-18.386-18.387l3.609-3.609v0.001l0.007-0.007L269.959,267.56z M261.274,259.494c1.78,3.497,1.108,7.742-1.665,10.52l-5.583,5.583
		c-1.09,1.091-1.09,2.858,0,3.948c5.069,5.08,5.069,13.305,0,18.385l3.949,3.949c3.44-3.438,5.392-8.092,5.43-12.956l10.981,10.981
		l-15.594,15.594l-18.385-18.385l3.609-3.609c0.523-0.524,0.817-1.234,0.817-1.975v-15.594L261.274,259.494z M252.052,260.82
		l-4.427,4.427l-4.427-4.427l4.427-4.426L252.052,260.82z"/>
</g>
</svg>
