<?xml version="1.0" encoding="utf-8"?>
<!-- Generator: Adobe Illustrator 14.0.0, SVG Export Plug-In . SVG Version: 6.00 Build 43363)  -->
<!DOCTYPE svg PUBLIC "-//W3C//DTD SVG 1.1//EN" "http://www.w3.org/Graphics/SVG/1.1/DTD/svg11.dtd">
<svg version="1.1" id="Capa_1" xmlns="http://www.w3.org/2000/svg" xmlns:xlink="http://www.w3.org/1999/xlink" x="0px" y="0px"
	 width="134px" height="144px" viewBox="1443.059 727 134 144" enable-background="new 1443.059 727 134 144" xml:space="preserve">
<polygon fill="#A576BA" points="1527.126,772.783 1513.053,772.406 1505.725,776.874 1501.8,784.925 1501.8,795.855 
	1490.284,797.45 1490.284,807.93 1501.8,807.93 1501.538,848.339 1516.456,849.794 1514.885,807.93 1524.831,807.93 
	1527.126,799.205 1513.57,797.446 1516.456,783.572 1526.844,783.572 "/>
<polygon fill="#A576BA" points="1469.158,746.678 1466.032,745.281 1462.542,746.678 1460.186,748.289 1461.757,752.548 
	1467.079,756.772 1470.917,758.717 1477.548,750.69 1475.802,746.163 "/>
<g>
	<path fill="#45145B" d="M1502.33,750.1h0.007c2.087-0.008,4.617-0.012,7.778-0.012c13.759,0,15.56,0.061,20.973,0.318
		c4.654,0.205,8.282,0.896,11.779,2.25c3.104,1.168,5.983,3.044,8.326,5.424c0.01,0.009,0.019,0.018,0.027,0.026
		c2.404,2.351,4.234,5.158,5.446,8.363c1.344,3.457,2.035,7.085,2.241,11.763c0.046,1.054,0.915,1.877,1.959,1.877
		c0.029,0,0.059-0.001,0.088-0.002c1.084-0.048,1.923-0.965,1.875-2.048c-0.226-5.125-0.998-9.139-2.497-12.995
		c-1.406-3.721-3.544-7.002-6.354-9.752c-2.736-2.776-6.101-4.966-9.711-6.324c-3.896-1.507-7.907-2.279-12.999-2.504
		c-5.482-0.26-7.304-0.321-21.153-0.321c-3.167,0-5.701,0.003-7.792,0.011c-1.084,0.005-1.96,0.886-1.956,1.97
		C1500.371,749.225,1501.249,750.1,1502.33,750.1L1502.33,750.1z"/>
	<path fill="#45145B" d="M1561.102,784.925c-0.005,0-0.011,0-0.017,0c-1.084,0.009-1.955,0.895-1.946,1.979
		c0.022,2.663,0.026,6.228,0.026,12.287c0,13.671-0.057,15.483-0.298,20.958c-0.14,3.163-0.513,5.89-1.141,8.335
		c-0.27,1.05,0.362,2.12,1.412,2.39c0.164,0.042,0.329,0.063,0.49,0.063c0.874,0,1.672-0.589,1.899-1.475
		c0.697-2.712,1.109-5.701,1.261-9.14c0.244-5.545,0.301-7.377,0.301-21.131c0-6.07-0.004-9.643-0.025-12.319
		C1563.056,785.793,1562.179,784.925,1561.102,784.925L1561.102,784.925z"/>
	<path fill="#45145B" d="M1571.061,834.926h-30.709l-10.356-7.877c-0.594-0.451-1.393-0.527-2.061-0.196
		c-0.668,0.332-1.091,1.013-1.091,1.759v31.592c0,3.31,2.69,6.002,5.998,6.002h4.248c1.084,0,1.963-0.878,1.963-1.963
		c0-1.084-0.879-1.963-1.963-1.963h-4.248c-1.144,0-2.072-0.932-2.072-2.076V832.57l7.732,5.881c0.342,0.26,0.759,0.4,1.188,0.4
		h31.37c1.143,0,2.072,0.932,2.072,2.077v19.274c0,1.146-0.93,2.077-2.072,2.077h-24.942c-1.085,0-1.963,0.878-1.963,1.963
		c0,1.084,0.878,1.963,1.963,1.963h24.942c3.308-0.001,5.998-2.693,5.998-6.003v-19.274
		C1577.059,837.619,1574.369,834.926,1571.061,834.926z"/>
	<path fill="#45145B" d="M1539.488,857.061h26.156c1.084,0,1.963-0.879,1.963-1.963c0-1.085-0.879-1.963-1.963-1.963h-26.156
		c-1.084,0-1.963,0.878-1.963,1.963C1537.525,856.182,1538.404,857.061,1539.488,857.061z"/>
	<path fill="#45145B" d="M1539.488,848.158h23.541c1.084,0,1.963-0.878,1.963-1.963c0-1.084-0.879-1.963-1.963-1.963h-23.541
		c-1.084,0-1.963,0.879-1.963,1.963C1537.525,847.28,1538.404,848.158,1539.488,848.158z"/>
	<path fill="#45145B" d="M1474.349,778.963c0.367,0.529,0.97,0.845,1.613,0.845s1.246-0.315,1.613-0.845l4.198-6.053h6.956
		c3.599,0,6.526-2.929,6.526-6.529v-27.646c0-3.601-2.928-6.529-6.527-6.529h-24.89c-1.085,0-1.963,0.879-1.963,1.963
		c0,1.085,0.878,1.963,1.963,1.963h24.89c1.435,0,2.602,1.168,2.602,2.604v27.646c0,1.436-1.167,2.604-2.602,2.604h-7.982
		c-0.644,0-1.246,0.315-1.613,0.844l-3.171,4.573l-3.171-4.573c-0.367-0.528-0.97-0.844-1.613-0.844h-21.592
		c-1.435,0-2.602-1.168-2.602-2.604v-27.646c0-1.436,1.167-2.604,2.602-2.604h5.212c1.084,0,1.963-0.878,1.963-1.963
		c0-1.084-0.879-1.963-1.963-1.963h-5.212c-3.599,0-6.527,2.929-6.527,6.529v27.646c0,3.601,2.929,6.529,6.527,6.529h20.564
		L1474.349,778.963z"/>
	<path fill="#45145B" d="M1467.77,761.587c0.368,0.368,0.867,0.575,1.388,0.575c0.521,0,1.021-0.207,1.389-0.575l7.518-7.521
		c2.543-2.544,2.546-6.683,0.005-9.225c-1.231-1.231-2.866-1.909-4.607-1.909c-0.002,0-0.004,0-0.005,0
		c-1.598,0.002-3.108,0.574-4.299,1.62c-1.189-1.046-2.7-1.618-4.298-1.62c-0.002,0-0.004,0-0.005,0
		c-1.741,0-3.377,0.679-4.607,1.909c-2.541,2.542-2.539,6.68,0.005,9.225L1467.77,761.587z M1463.024,747.616
		c0.489-0.488,1.139-0.758,1.831-0.758h0.002c0.693,0.001,1.347,0.271,1.838,0.764l1.075,1.076c0.368,0.367,0.867,0.574,1.388,0.574
		c0.521,0,1.021-0.207,1.389-0.575l1.075-1.075c0.491-0.492,1.144-0.763,1.838-0.764h0.002c0.692,0,1.342,0.27,1.83,0.758
		c1.012,1.013,1.01,2.66-0.004,3.675l-6.13,6.132l-6.129-6.132C1462.015,750.276,1462.012,748.629,1463.024,747.616
		L1463.024,747.616z"/>
	<path fill="#45145B" d="M1530.995,796.346c-0.365-0.539-0.975-0.862-1.625-0.862h-11.874v-9.63c0-0.084,0.004-0.149,0.01-0.2
		c0.397-0.096,1.293-0.088,1.909-0.084c0.198,0.002,0.4,0.004,0.606,0.004h7.104c1.084,0,1.963-0.879,1.963-1.963v-11.22
		c0-1.084-0.879-1.963-1.963-1.963h-11.593c-8.506,0-15.426,6.92-15.426,15.426v9.63h-9.63c-1.084,0-1.963,0.879-1.963,1.963v11.22
		c0,1.084,0.879,1.963,1.963,1.963h9.63v7.077c0,1.085,0.879,1.963,1.963,1.963s1.963-0.878,1.963-1.963v-9.04
		c0-1.085-0.879-1.963-1.963-1.963h-9.63v-7.294h9.63c1.084,0,1.963-0.879,1.963-1.963v-11.593c0-6.341,5.159-11.5,11.5-11.5h9.63
		v7.294h-5.142c-0.195,0-0.388-0.002-0.576-0.004c-1.728-0.011-3.518-0.027-4.766,1.212c-0.736,0.73-1.109,1.739-1.109,2.998v11.593
		c0,1.084,0.879,1.963,1.963,1.963h10.938l-2.918,7.294h-8.02c-1.084,0-1.963,0.878-1.963,1.963v39.604
		c-1.051,0.001-2.2,0.002-3.475,0.002c-2.344,0-4.338-0.002-6.063-0.006v-21.487c0-1.084-0.879-1.963-1.963-1.963
		s-1.963,0.879-1.963,1.963v21.472c-5.227-0.033-7.252-0.112-10.965-0.276c-4.653-0.204-8.281-0.896-11.78-2.249
		c-3.104-1.169-5.983-3.045-8.327-5.425c-0.006-0.007-0.014-0.015-0.021-0.021c-2.418-2.382-4.249-5.191-5.45-8.368
		c-1.345-3.459-2.036-7.086-2.242-11.763c-0.24-5.475-0.297-7.288-0.297-20.958c0-12.159,0.049-14.988,0.229-19.051
		c0.048-1.083-0.791-2-1.874-2.048c-1.084-0.049-2,0.792-2.048,1.874c-0.183,4.131-0.232,6.989-0.232,19.225
		c0,13.754,0.058,15.586,0.301,21.131c0.227,5.123,0.999,9.137,2.499,12.995c1.394,3.689,3.53,6.969,6.351,9.75
		c2.737,2.777,6.102,4.967,9.714,6.326c3.897,1.508,7.908,2.279,13.006,2.504c5.527,0.244,7.356,0.302,21.126,0.302
		c4.853,0,7.949-0.008,10.354-0.024c1.084-0.008,1.956-0.893,1.949-1.977c-0.008-1.079-0.885-1.949-1.962-1.949
		c-0.006,0-0.01,0-0.015,0c-0.866,0.006-1.826,0.011-2.925,0.015v-37.634h7.386c0.803,0,1.524-0.489,1.822-1.234l4.487-11.219
		C1531.433,797.57,1531.36,796.886,1530.995,796.346L1530.995,796.346z"/>
</g>
</svg>
