<?xml version="1.0" encoding="utf-8"?>
<!-- Generator: Adobe Illustrator 14.0.0, SVG Export Plug-In . SVG Version: 6.00 Build 43363)  -->
<!DOCTYPE svg PUBLIC "-//W3C//DTD SVG 1.1//EN" "http://www.w3.org/Graphics/SVG/1.1/DTD/svg11.dtd">
<svg version="1.1" id="Capa_1" xmlns="http://www.w3.org/2000/svg" xmlns:xlink="http://www.w3.org/1999/xlink" x="0px" y="0px"
	 width="290px" height="290px" viewBox="0 0 290 290" enable-background="new 0 0 290 290" xml:space="preserve">
<g>
	<g id="XMLID_1_">
		<g id="XMLID_48_">
			<g id="XMLID_93_">
				<path id="XMLID_98_" fill="#A675BC" d="M130.764,46.645c-0.082-0.231,0.047-0.484,0.281-0.557l44.602-13.72
					c10.049-2.978,22.078,0.644,33.734,11.593l45.143,42.407c23.299,21.89,36.387,65.267,29.078,96.392l-14.152,60.298
					c-3.566,15.177-11.293,24.705-20.963,28.025l-43.814,13.501c-0.213,0.067-0.445-0.042-0.527-0.249l-12.504-31.088l12.08-2.867
					l-8.648-8.126c0,0-4.037,10.317-12.379,14.385l0.139,0.268l-48.348,14.626c-0.33,0.101-0.639-0.207-0.543-0.534l9.85-33.434
					l6.225-6.177c0,0,13.988-4.032,15.119-3.448c1.137,0.587,3.318,0.779,3.318,0.779l0.367,0.713
					c0.729-3.146,1.232-6.651,1.273-10.64l-1.439-1.354c-23.299-21.892-36.385-65.271-29.078-96.399l11.973-50.998l-11.475,3.146
					L130.764,46.645z"/>
				<path id="XMLID_94_" fill="#150035" d="M201.818,285.269l-12.254-30.475c-1.068,1.021-2.252,1.987-3.555,2.831l0.416,0.81
					l-51.227,15.498c-1.047,0.308-2.152,0.021-2.914-0.737c-0.766-0.759-1.047-1.873-0.744-2.906l10.031-34.05l7.131-7.082
					l0.617-0.175c14.957-4.313,16.066-3.736,16.967-3.266c0.145,0.074,0.387,0.149,0.68,0.22c0.33-2.005,0.531-4.017,0.602-6.087
					l-0.627-0.584c-23.938-22.5-37.307-66.819-29.805-98.804l11.012-46.893l-9.668,2.651l-10.074-28.745
					c-0.268-0.75-0.213-1.587,0.146-2.298c0.355-0.711,1-1.25,1.756-1.481l44.627-13.729c11.377-3.373,24.219,0.953,36.162,12.17
					l45.139,42.404c23.941,22.496,37.311,66.808,29.805,98.793l-14.154,60.295c-3.635,15.479-11.652,26.064-22.664,29.849
					l-43.824,13.508c-0.281,0.08-0.563,0.121-0.844,0.121C203.375,287.106,202.26,286.394,201.818,285.269z M176.385,34.76
					L133.838,47.85l7.826,22.306l13.283-3.647l-12.932,55.101c-7.145,30.427,5.576,72.601,28.355,94.007l2.24,2.105l-0.014,1.098
					c-0.045,3.838-0.479,7.491-1.342,11.182l-1.553,6.661l-2.887-5.638c-0.711-0.129-1.57-0.324-2.32-0.627
					c-1.709,0.145-7.865,1.705-13.176,3.219l-5.307,5.269l-8.584,29.144l42.674-12.915l1.492-0.725
					c7.338-3.578,11.109-12.957,11.146-13.049l1.357-3.438l14.73,13.842l-13.779,3.267l10.707,26.623l41.916-12.915
					c9.244-3.182,16.111-12.493,19.334-26.235l14.156-60.297c7.146-30.431-5.578-72.596-28.357-93.991l-45.139-42.409
					c-8.344-7.835-17.01-11.928-24.994-11.928C180.523,33.859,178.418,34.158,176.385,34.76z M195.85,246.415
					c-0.613,1.122-1.408,2.447-2.391,3.826l5.162-1.222L195.85,246.415z"/>
			</g>
			<g id="XMLID_60_">
				<path id="XMLID_64_" fill="#FFFFFF" d="M150.877,71.102l64.494-21.228l0,0l38.75,36.399
					c11.293,10.612,20.156,26.281,25.492,43.148l-44.328,14.231l-87.832-57.963L150.877,71.102z"/>
				<path id="XMLID_61_" fill="#150035" d="M144.613,86.817l4.148-17.656l67.242-22.131l39.832,37.418
					c11.172,10.501,20.463,26.203,26.164,44.217l0.752,2.379l-47.844,15.356L144.613,86.817z M252.404,88.1l-37.66-35.385
					l-61.752,20.326l-2.709,11.521l85.381,56.335l40.783-13.091C270.965,111.595,262.479,97.564,252.404,88.1z"/>
			</g>
			<g id="XMLID_58_">
				<path id="XMLID_59_" fill="#150035" d="M175.654,32.329c8.006-2.372,17.264-0.479,26.588,5.886L134.9,58.374l-4.129-11.768
					c-0.078-0.231,0.047-0.484,0.281-0.558L175.654,32.329z"/>
			</g>
			<g id="XMLID_56_">
				<path id="XMLID_57_" fill="#150035" d="M150.016,231.388c0,0,13.988-4.032,15.119-3.448c1.137,0.587,3.318,0.779,3.318,0.779
					l0.367,0.713c0.258-1.122,0.449-2.352,0.637-3.573l25.979,4l45.467-46.528l44.537-13.686c-0.27,4.534-0.855,8.941-1.838,13.115
					l-14.152,60.298c-3.566,15.177-11.293,24.705-20.963,28.025l-43.814,13.501c-0.213,0.067-0.445-0.042-0.527-0.249
					l-12.504-31.088l12.08-2.867l-8.648-8.126c0,0-4.037,10.317-12.379,14.385l0.139,0.268l-48.348,14.626
					c-0.33,0.101-0.639-0.207-0.543-0.534l9.85-33.434L150.016,231.388z"/>
			</g>
			<g id="XMLID_51_">
				<path id="XMLID_55_" fill="#A675BC" d="M164.813,57.674l45.137,42.405c23.4,21.982,36.422,65.138,29.084,96.393l-14.158,60.295
					c-7.332,31.255-32.25,38.771-55.65,16.789l-18.721-17.59c0,0-10.084,25.897-31.416,11.83c-2.643-1.742-3.844-6.942-2.109-9.115
					c3.633-4.554,8.396-13.014,8.547-26.179l-1.441-1.35c-23.398-21.982-36.418-65.138-29.08-96.392l14.156-60.296
					C116.494,43.208,141.412,35.691,164.813,57.674z"/>
				<path id="XMLID_52_" fill="#150035" d="M167.508,275.384l-16.229-15.249c-2.262,4.159-7.021,11.092-14.588,13.503
					c-5.945,1.896-12.336,0.631-18.982-3.752c-1.963-1.291-3.459-3.872-3.912-6.724c-0.385-2.427,0.051-4.574,1.227-6.045
					c3.463-4.34,7.605-11.913,7.973-23.554l-0.629-0.588c-23.939-22.494-37.309-66.812-29.801-98.792l14.152-60.289
					c3.766-16.026,12.113-26.745,23.518-30.186c11.41-3.441,24.295,0.87,36.289,12.14l45.137,42.407
					c23.947,22.491,37.316,66.805,29.807,98.792l-14.156,60.293c-3.762,16.022-12.109,26.741-23.514,30.182
					c-2.564,0.773-5.197,1.154-7.879,1.154C186.656,288.677,176.813,284.121,167.508,275.384z M163.094,59.498
					c-10.633-9.99-21.785-13.901-31.41-10.995c-9.617,2.901-16.75,12.326-20.084,26.535l-14.154,60.296
					c-7.146,30.42,5.574,72.59,28.354,93.994l2.24,2.105l-0.014,1.102c-0.154,13.682-5.027,22.619-9.092,27.704
					c-0.178,0.222-0.373,0.98-0.191,2.139c0.225,1.421,0.947,2.817,1.725,3.33c5.314,3.507,10.248,4.56,14.688,3.168
					c8.566-2.719,12.973-13.712,13.018-13.822l1.35-3.441l21.416,20.12c10.637,9.988,21.787,13.906,31.412,10.996
					c9.617-2.899,16.752-12.325,20.09-26.535l14.156-60.292c7.143-30.433-5.578-72.6-28.361-93.994L163.094,59.498L163.094,59.498z"
					/>
			</g>
			<g id="XMLID_49_">
				
					<rect id="XMLID_50_" x="226.782" y="250.544" transform="matrix(-0.9611 0.276 -0.276 -0.9611 552.2966 426.694)" fill="#A675BC" width="38.676" height="3.34"/>
			</g>
		</g>
	</g>
	<g id="XMLID_99_">
		<g id="XMLID_113_">
			<path id="XMLID_114_" fill="#FFFFFF" d="M177.635,200.646l-0.992-0.488l-31.832-96.827l-0.625-2.1l3.891-1.533l58.049,113.41
				L177.635,200.646z M180.26,196.94l16.236,7.104l-38.865-75.945L180.26,196.94z"/>
		</g>
		<g id="XMLID_108_">
			<path id="XMLID_109_" fill="#FFFFFF" d="M127.914,182.664l16.463-81.244l0.434-1.838l3.746,0.192l14.641,93.53L127.914,182.664z
				 M133.072,179.579l24.643,7.431l-11.395-72.798L133.072,179.579z"/>
		</g>
		<g id="XMLID_103_">
			<path id="XMLID_104_" fill="#FFFFFF" d="M158.26,190.49l-13.701-87.539l-0.287-2.158l4.104-0.854l32.188,97.917l0.289,1.11
				l-19.555,30.447L158.26,190.49z M153.023,128.32l9.648,61.667l2.025,25.912l11.324-17.626L153.023,128.32z"/>
		</g>
		<g id="XMLID_100_">
			<polygon id="XMLID_102_" fill="#FFFFFF" points="162.902,221.445 162.387,221.954 155.986,188.809 160.135,190.059 			"/>
			<polygon id="XMLID_101_" fill="#FFFFFF" points="160.992,226.453 165.207,222.29 162.215,188.367 153.109,185.621 			"/>
		</g>
	</g>
</g>
<g>
	<g id="XMLID_44_">
		<g id="XMLID_45_">
			<g id="XMLID_144_">
				<g id="XMLID_307_">
					<path id="XMLID_316_" fill="#90BD21" d="M28.15,13.031c-0.051-0.12,0.014-0.258,0.135-0.296l28.275-8.668
						c6.281-1.736,13.75,0.559,20.99,7.364l28.455,26.728c14.684,13.797,22.932,41.137,18.328,60.754l-8.922,38.004
						c-2.385,10.155-7.725,16.3-14.352,18.001l-24.658,7.636c0.023,1.023,0.057,2.019,0.119,2.922c0.1,1.495-0.461,2.41-1.238,2.559
						l-27.709,8.53c-0.111,0.035-0.232-0.026-0.27-0.141l-4.523-13.761l7.641-21.447c0,0,11.313-3.776,11.883-3.64
						c0.107,0.024,0.588,0.471,1.301,1.177c-0.213-4.171,0.08-6.896,0.08-6.896l-11.803-11.086
						c-14.686-13.799-22.932-41.137-18.328-60.753l6.908-29.436l-3.771,1.736L28.15,13.031z"/>
					<path id="XMLID_309_" fill="#150035" d="M45.158,177.129l-4.762-14.492l8.27-23.212l1.043-0.347
						c7.063-2.356,10.105-3.281,11.563-3.602c0.006-1.137,0.045-2.054,0.084-2.713L50.34,122.416
						C35.092,108.09,26.578,79.869,31.357,59.5l5.857-24.937l-1.66,0.763L26.09,13.944c-0.285-0.645-0.283-1.381,0.006-2.024
						l0.557-1.047l29.305-8.979C63.293-0.14,71.52,2.664,79.1,9.787l28.449,26.728c15.25,14.324,23.766,42.546,18.982,62.914
						l-8.92,38.002c-2.512,10.681-8.191,17.668-15.885,19.646l-23.016,7.125c0.02,0.388,0.039,0.761,0.061,1.12
						c0.199,2.964-1.396,4.61-2.824,4.87l-27.734,8.537c-0.234,0.071-0.471,0.103-0.705,0.103
						C46.471,178.831,45.514,178.176,45.158,177.129z M74.271,165.63c-0.064-0.938-0.104-1.965-0.123-3.031l-0.031-1.702
						l26.381-8.161c6.094-1.567,10.611-7.368,12.719-16.335l8.918-38.002c4.455-18.968-3.475-45.254-17.678-58.593L76.008,13.076
						c-6.389-6-13.064-8.438-18.787-6.852l-26.074,7.993l6.684,15.095l5.889-2.713l-7.965,33.936
						c-4.453,18.968,3.475,45.251,17.678,58.594l12.615,11.853l-0.117,1.115c-0.004,0.021-0.27,2.628-0.07,6.546l0.299,5.827
						l-4.141-4.112c-0.127-0.123-0.242-0.238-0.348-0.341c-1.754,0.482-5.713,1.747-9.488,2.999l-7.016,19.681l3.656,11.127
						l25.445-7.82C74.277,165.905,74.279,165.782,74.271,165.63z"/>
				</g>
				<g id="XMLID_288_">
					<g id="XMLID_289_">
						<path id="XMLID_296_" fill="#150035" d="M75.115,167.995l-27.707,8.53c-0.117,0.033-0.234-0.027-0.273-0.141l-4.52-13.76
							l7.641-21.447c0,0,10.229-3.417,11.705-3.627l1.475,1.165l12.801,23.796c0.021,1.027,0.057,2.02,0.119,2.921
							C76.455,166.933,75.893,167.846,75.115,167.995z"/>
					</g>
				</g>
				<g id="XMLID_281_">
					<path id="XMLID_287_" fill="#FFFFFF" d="M40.676,28.808l40.648-13.379l0,0l24.424,22.941
						c7.117,6.689,12.705,16.564,16.068,27.195l-27.941,8.969L38.514,38.002L40.676,28.808z"/>
					<path id="XMLID_283_" fill="#150035" d="M35.959,39.019l2.811-11.959l43.123-14.194l25.398,23.86
						c7.129,6.696,13.049,16.696,16.674,28.159l0.68,2.144l-31.111,9.983L35.959,39.019z M104.203,40.015L80.76,17.991
						L42.584,30.556l-1.514,6.429l53.148,35.071l24.738-7.942C115.529,54.276,110.34,45.779,104.203,40.015z"/>
				</g>
				<g id="XMLID_277_">
					<path id="XMLID_280_" fill="#150035" d="M56.469,3.708c5.043-1.495,10.877-0.302,16.756,3.711L30.781,20.123l-2.602-7.417
						c-0.051-0.146,0.029-0.307,0.178-0.352L56.469,3.708z"/>
				</g>
				<g id="XMLID_273_">
					<path id="XMLID_275_" fill="#150035" d="M69.018,127.511l28.656-29.328l28.072-8.623c-0.17,2.856-0.539,5.636-1.156,8.265
						l-8.922,38.003c-2.246,9.568-7.117,15.571-13.211,17.665l-27.619,8.508c-0.135,0.045-0.279-0.025-0.334-0.153l-7.879-19.595
						L69.018,127.511z"/>
				</g>
				<g id="XMLID_192_">
					<path id="XMLID_272_" fill="#90BD21" d="M77.912,46.801L49.459,20.073C34.713,6.218,19.008,10.957,14.383,30.655l-8.92,38.004
						c-4.625,19.699,3.582,46.899,18.328,60.755l11.803,11.083c0,0-2.223,20.206,9.775,35.246c1.486,1.86,3.229,0.93,3.061-1.628
						c-0.361-5.359-0.225-13.386,2.904-18.824l0.908,0.848c14.748,13.857,30.453,9.119,35.076-10.582l8.922-38.001
						C100.865,87.857,92.658,60.656,77.912,46.801z"/>
					<path id="XMLID_266_" fill="#150035" d="M43.607,177.149c-10.92-13.684-10.645-31.11-10.35-35.747l-11.012-10.344
						C6.996,116.732-1.518,88.51,3.264,68.143l8.924-38.004c2.428-10.345,7.857-17.274,15.287-19.516
						c7.428-2.249,15.785,0.528,23.531,7.805l28.453,26.727v0.003c15.248,14.322,23.762,42.546,18.982,62.912l-8.928,38.007
						c-2.426,10.344-7.855,17.272-15.285,19.514c-6.986,2.108-14.785-0.212-22.123-6.536c-1.318,3.771-1.824,8.935-1.426,14.909
						c0.154,2.299-0.793,4.136-2.469,4.784c-0.363,0.141-0.781,0.225-1.227,0.225C45.912,178.973,44.676,178.49,43.607,177.149z
						 M53.787,154.495c6.518,6.126,13.318,8.533,19.139,6.777s10.15-7.52,12.193-16.23l8.926-38.002
						c4.453-18.968-3.477-45.254-17.678-58.595v0.001L47.916,21.717c-6.525-6.123-13.328-8.541-19.139-6.774
						c-5.82,1.756-10.152,7.521-12.193,16.228L7.658,69.176c-4.453,18.966,3.477,45.251,17.678,58.59l12.623,11.857l-0.121,1.124
						c-0.023,0.187-1.844,18.023,8.26,32.158c-0.266-5.799,0.164-13.329,3.281-18.74l1.42-2.47L53.787,154.495z"/>
				</g>
				<g id="XMLID_186_">
					<g>
						<polygon fill="#90BD21" points="89.658,146.41 113.094,139.685 112.266,136.792 88.832,143.522 						"/>
					</g>
				</g>
				<g id="XMLID_145_">
					<g>
						
							<rect x="49.84" y="162.063" transform="matrix(-0.9611 0.2761 -0.2761 -0.9611 151.0564 305.8638)" fill="#90BD21" width="8.311" height="3.006"/>
					</g>
				</g>
			</g>
			<g id="XMLID_46_">
				<g id="XMLID_136_">
					<path id="XMLID_143_" fill="#90BD21" d="M25.465,96.544l38.354,36.032c2.367,2.226,4.98,1.07,5.84-2.584l8.689-37.018
						c0.857-3.654-0.365-8.418-2.734-10.643L37.26,46.3c-2.371-2.225-4.982-1.067-5.84,2.585l-8.691,37.017
						C21.871,89.555,23.094,94.319,25.465,96.544z"/>
					<path id="XMLID_137_" fill="#FFFFFF" d="M62.789,133.672L24.43,97.642c-2.754-2.593-4.148-7.901-3.162-12.083l8.688-37.02
						c0.576-2.458,1.92-4.172,3.686-4.705c1.549-0.461,3.207,0.014,4.648,1.37l38.357,36.031c2.758,2.592,4.152,7.898,3.166,12.079
						l-8.691,37.021c-0.574,2.456-1.916,4.171-3.686,4.703c-0.385,0.12-0.779,0.177-1.174,0.177
						C65.07,135.215,63.869,134.689,62.789,133.672z M34.512,46.717c-0.691,0.207-1.313,1.169-1.629,2.511l-8.689,37.019
						c-0.732,3.125,0.32,7.337,2.301,9.204l38.357,36.031c0.359,0.341,1.068,0.87,1.717,0.681c0.688-0.212,1.311-1.175,1.629-2.515
						l8.689-37.021c0.732-3.123-0.32-7.337-2.305-9.2l-38.354-36.03c-0.305-0.29-0.859-0.725-1.426-0.725
						C34.707,46.673,34.607,46.687,34.512,46.717z"/>
				</g>
				<g id="XMLID_47_">
					<path id="XMLID_135_" fill="#FFFFFF" d="M51.775,96.75c0.385,0,0.764-0.061,1.131-0.179l25.65-8.349l-0.93-2.86L51.98,93.706
						c-0.279,0.086-0.594-0.033-0.816-0.148c-0.799-0.423-1.959-1.683-2.592-3.833L35.404,44.909l-2.887,0.85l13.17,44.816
						c0.76,2.589,2.283,4.699,4.074,5.643C50.426,96.571,51.109,96.75,51.775,96.75z"/>
				</g>
			</g>
		</g>
	</g>
	<g>
		<circle fill="#FFFFFF" cx="76.366" cy="82.729" r="14.022"/>
		<g>
			<path fill="#90BD21" d="M72.535,80.061c-0.242,0.128-0.476,0.192-0.702,0.192c-0.196,0-0.378-0.04-0.544-0.119
				s-0.309-0.183-0.43-0.312c-0.121-0.128-0.215-0.277-0.283-0.447c-0.068-0.17-0.102-0.346-0.102-0.527
				c0-0.271,0.073-0.505,0.221-0.702c0.146-0.196,0.379-0.393,0.696-0.589l3.759-2.14c0.219-0.128,0.448-0.245,0.689-0.351
				c0.242-0.106,0.494-0.159,0.76-0.159c0.671,0,1.164,0.24,1.477,0.719c0.313,0.479,0.47,1.168,0.47,2.066v10.947
				c0,0.37-0.03,0.719-0.091,1.047s-0.168,0.617-0.322,0.866S77.769,91,77.504,91.144c-0.264,0.144-0.6,0.215-1.007,0.215
				c-0.71,0-1.223-0.249-1.54-0.747c-0.316-0.499-0.475-1.242-0.475-2.23v-9.509L72.535,80.061z"/>
		</g>
	</g>
</g>
</svg>
