<?xml version="1.0" encoding="utf-8"?>
<!-- Generator: Adobe Illustrator 14.0.0, SVG Export Plug-In . SVG Version: 6.00 Build 43363)  -->
<!DOCTYPE svg PUBLIC "-//W3C//DTD SVG 1.1//EN" "http://www.w3.org/Graphics/SVG/1.1/DTD/svg11.dtd">
<svg version="1.1" id="Modo_de_aislamiento" xmlns="http://www.w3.org/2000/svg" xmlns:xlink="http://www.w3.org/1999/xlink"
	 x="0px" y="0px" width="40px" height="40px" viewBox="0 0 40 40" enable-background="new 0 0 40 40" xml:space="preserve">
<path fill="#91BD26" d="M40.03,10.924c0-2.841-2.312-5.152-5.153-5.152H5.123c-2.842,0-5.153,2.312-5.153,5.152v19.539
	c0,2.842,2.312,5.154,5.153,5.154h29.754c1.605,0,3.023-0.753,3.969-1.907c0.1-0.065,0.194-0.141,0.282-0.229
	c0.281-0.281,0.44-0.636,0.49-1.002c0.265-0.62,0.412-1.301,0.412-2.017V10.924z M27.971,19.851l8.56-6.531v15.09L27.971,19.851z
	 M34.877,9.271c0.317,0,0.611,0.094,0.862,0.249L19.615,21.822c-0.037,0.029-0.074,0.059-0.108,0.09
	c-0.023-0.021-0.046-0.04-0.07-0.059L4.198,9.554C4.462,9.375,4.78,9.271,5.123,9.271H34.877z M3.47,28.32V13.464l8.222,6.636
	L3.47,28.32z M5.123,32.117c-0.152,0-0.296-0.027-0.436-0.065l9.743-9.742l2.749,2.219c0.653,0.612,1.49,0.919,2.327,0.919
	c0.829,0,1.659-0.301,2.309-0.9l3.348-2.554l10.081,10.08c-0.118,0.026-0.24,0.044-0.367,0.044H5.123z"/>
</svg>
