<?xml version="1.0" encoding="utf-8"?>
<!-- Generator: Adobe Illustrator 14.0.0, SVG Export Plug-In . SVG Version: 6.00 Build 43363)  -->
<!DOCTYPE svg PUBLIC "-//W3C//DTD SVG 1.1//EN" "http://www.w3.org/Graphics/SVG/1.1/DTD/svg11.dtd">
<svg version="1.1" id="Capa_1" xmlns="http://www.w3.org/2000/svg" xmlns:xlink="http://www.w3.org/1999/xlink" x="0px" y="0px"
	 width="134px" height="144px" viewBox="861.289 725.5 134 144" enable-background="new 861.289 725.5 134 144"
	 xml:space="preserve">
<rect x="913.965" y="767.701" fill="#A576BA" width="29.05" height="87.863"/>
<polygon fill="#A576BA" points="928.49,753.43 924.767,753.43 920.246,747.634 920.246,733.723 928.49,733.723 "/>
<path fill="#45145B" d="M928.289,776.87c1.233,0,2.232,1,2.232,2.233s1,2.233,2.234,2.233c1.232,0,2.232-1,2.232-2.233
	c0-3.7-2.999-6.7-6.699-6.7c-3.661,0.093-6.607,3.038-6.7,6.7c0,3.613,3.296,5.26,5.701,6.466c1.893,0.944,3.231,1.677,3.231,2.468
	c-0.074,1.2-1.032,2.158-2.232,2.233c-1.234,0-2.233-1-2.233-2.233s-1-2.233-2.233-2.233s-2.233,1-2.233,2.233
	c0,3.7,2.999,6.699,6.7,6.699c3.661-0.092,6.607-3.038,6.699-6.699c0-3.614-3.296-5.26-5.701-6.465
	c-1.892-0.946-3.231-1.678-3.231-2.469C926.131,777.902,927.088,776.945,928.289,776.87z"/>
<path fill="#45145B" d="M932.756,803.67c1.232,0,2.232-1,2.232-2.233s-1-2.233-2.232-2.233h-6.7c-2.468,0-4.467,2.001-4.467,4.467
	v13.4c0,2.467,1.999,4.467,4.467,4.467h6.7c1.232,0,2.232-1,2.232-2.233s-1-2.233-2.232-2.233h-6.7v-4.467h6.7
	c1.232,0,2.232-1,2.232-2.233c0-1.232-1-2.232-2.232-2.232h-6.7v-4.468H932.756z"/>
<path fill="#45145B" d="M928.289,826.004c-3.701,0-6.7,2.999-6.7,6.699v8.935c0,3.699,2.999,6.699,6.7,6.699
	c3.7,0,6.699-3,6.699-6.699v-8.935C934.988,829.003,931.989,826.004,928.289,826.004z M930.521,841.638
	c0,1.232-0.999,2.232-2.232,2.232c-1.234,0-2.233-1-2.233-2.232v-8.935c0-1.232,0.999-2.232,2.233-2.232
	c1.233,0,2.232,1,2.232,2.232V841.638z"/>
<path fill="#45145B" d="M988.589,852.804h-2.232v-60.3c0-3.701-3.001-6.7-6.701-6.7h-22.333c-3.7,0-6.7,2.999-6.7,6.7v60.3h-4.467
	V770.17c0-3.7-2.999-6.7-6.7-6.7h-3.086l-4.748-9.498c3.099-0.965,5.625-3.229,6.923-6.204c4.108-0.026,8.002-1.834,10.674-4.955
	c1.532-1.84,1.842-4.407,0.79-6.558c-1.302-2.534-3.934-4.107-6.782-4.052h-29.871c-2.85-0.056-5.482,1.516-6.785,4.052
	c-1.051,2.15-0.742,4.718,0.79,6.558c2.672,3.12,6.564,4.929,10.672,4.955c1.298,2.975,3.824,5.239,6.923,6.204l-4.745,9.498h-3.087
	c-3.7,0-6.7,3-6.7,6.7v82.634h-4.467v-37.967c0-3.7-3-6.699-6.699-6.699h-22.334c-3.7,0-6.699,2.999-6.699,6.699v37.967h-2.234
	c-3.699,0-6.699,2.999-6.699,6.7c0,3.699,3,6.699,6.699,6.699h120.601c3.7,0,6.7-3,6.7-6.699
	C995.289,855.803,992.289,852.804,988.589,852.804z M955.089,792.504c0-1.234,1-2.233,2.233-2.233h22.333
	c1.233,0,2.234,0.999,2.234,2.233v60.3h-26.801V792.504z M945.978,738.185c0.31,0.6,0.214,1.328-0.241,1.827
	c-1.595,1.845-3.852,2.987-6.282,3.185v-6.526h3.771C944.357,736.607,945.426,737.195,945.978,738.185z M910.598,738.185
	c0.554-0.99,1.623-1.577,2.756-1.515h3.768v6.526c-2.429-0.194-4.685-1.334-6.28-3.177
	C910.383,739.521,910.285,738.787,910.598,738.185z M921.589,743.37v-6.7h13.399v6.7c0,3.701-2.999,6.7-6.699,6.7
	C924.588,750.07,921.589,747.071,921.589,743.37z M928.289,757.298l3.087,6.172h-6.174L928.289,757.298z M914.889,770.17
	c0-1.233,1-2.233,2.232-2.233h22.333c1.234,0,2.233,1,2.233,2.233v82.634h-26.799V770.17z M874.688,814.837
	c0-1.233,1-2.233,2.233-2.233h22.334c1.232,0,2.232,1,2.232,2.233v37.967h-26.8V814.837z M988.589,861.736H867.988
	c-1.232,0-2.232-0.999-2.232-2.232c0-1.234,1-2.233,2.232-2.233h120.601c1.233,0,2.233,0.999,2.233,2.233
	C990.822,860.737,989.822,861.736,988.589,861.736z"/>
<path fill="#45145B" d="M970.722,739.828l0.654,0.654c0.876,0.846,2.27,0.835,3.13-0.027c0.862-0.861,0.874-2.254,0.027-3.13
	l-4.466-4.468c-0.209-0.208-0.456-0.373-0.729-0.484c-0.547-0.226-1.16-0.226-1.706,0c-0.273,0.111-0.521,0.276-0.729,0.484
	l-4.466,4.468c-0.846,0.876-0.834,2.269,0.027,3.13c0.862,0.862,2.254,0.873,3.13,0.027l0.66-0.654v10.242
	c0,1.233,1,2.233,2.232,2.233c1.234,0,2.234-1,2.234-2.233V739.828z"/>
<path fill="#45145B" d="M968.488,756.77c-1.232,0-2.232,1-2.232,2.234v4.466c0,1.233,1,2.233,2.232,2.233
	c1.234,0,2.234-1,2.234-2.233v-4.466C970.722,757.77,969.722,756.77,968.488,756.77z"/>
<path fill="#45145B" d="M888.942,770.343c-0.547-0.227-1.16-0.227-1.706,0c-0.273,0.111-0.521,0.275-0.729,0.484l-4.467,4.467
	c-0.845,0.876-0.834,2.269,0.028,3.13c0.861,0.862,2.254,0.874,3.13,0.028l0.657-0.658v3.543c0,1.233,1,2.233,2.233,2.233
	s2.233-1,2.233-2.233v-3.543l0.654,0.655c0.877,0.846,2.269,0.835,3.131-0.027c0.861-0.861,0.874-2.254,0.027-3.13l-4.467-4.467
	C889.461,770.617,889.213,770.453,888.942,770.343z"/>
<path fill="#45145B" d="M888.089,788.037c-1.233,0-2.233,1-2.233,2.233v11.166c0,1.233,1,2.233,2.233,2.233s2.233-1,2.233-2.233
	v-11.166C890.322,789.037,889.322,788.037,888.089,788.037z"/>
</svg>
