<?xml version="1.0" encoding="utf-8"?>
<!-- Generator: Adobe Illustrator 14.0.0, SVG Export Plug-In . SVG Version: 6.00 Build 43363)  -->
<!DOCTYPE svg PUBLIC "-//W3C//DTD SVG 1.1//EN" "http://www.w3.org/Graphics/SVG/1.1/DTD/svg11.dtd">
<svg version="1.1" id="Capa_1" xmlns="http://www.w3.org/2000/svg" xmlns:xlink="http://www.w3.org/1999/xlink" x="0px" y="0px"
	 width="134px" height="105px" viewBox="1443.059 727.09 134 105" enable-background="new 1443.059 727.09 134 105"
	 xml:space="preserve">
<path fill="#A576BA" d="M1570.505,769.257c0.837-0.488,1.647-1.19,1.669-2.263c0.024-1.25-0.401-2.427-0.472-3.667
	c-0.153-2.739,1.515-4.46,2.969-6.561c1.498-2.165,1.078-4.484,0.942-6.964c-0.016-0.279,0.045-0.511,0.154-0.697l-3.492-3.607
	l-15.365,14.873l10.302,10.644C1568.154,770.234,1569.471,769.859,1570.505,769.257z"/>
<polygon fill="#A576BA" points="1490.729,741.776 1460.545,760.097 1460.545,798.482 1491.951,816.104 1505.211,810.172 
	1512.539,792.026 1501.198,798.133 1490.206,801.623 1478.69,795.516 1472.932,790.979 1472.932,768.297 1492.125,757.654 
	1511.842,768.297 1511.492,789.061 1523.706,777.195 1523.706,760.445 "/>
<path fill="#45145B" d="M1577.059,753.259c0-3.352-1.305-6.501-3.675-8.871c-4.774-4.771-12.471-4.883-17.384-0.336
	c-2.681-1.521-6.155-1.143-8.438,1.14c-2.279,2.279-2.66,5.748-1.146,8.427l-19.64,19.64v-29.374h12.572
	c1.084,0,1.963-0.879,1.963-1.963c0-1.085-0.879-1.963-1.963-1.963h-12.572v-10.029c0-1.084-0.878-1.963-1.963-1.963
	c-1.084,0-1.963,0.879-1.963,1.963v10.029h-46.549c-1.085,0-1.963,0.878-1.963,1.963c0,1.084,0.878,1.963,1.963,1.963h8.565
	l-23.28,13.428c-0.023,0.014-0.046,0.029-0.069,0.043v-13.471h6.932c1.084,0,1.963-0.879,1.963-1.963
	c0-1.085-0.879-1.963-1.963-1.963h-6.931V729.93c0-1.084-0.879-1.963-1.963-1.963s-1.963,0.879-1.963,1.963v10.028h-12.571
	c-1.084,0-1.963,0.878-1.963,1.963c0,1.084,0.879,1.963,1.963,1.963h12.571v71.412h-12.571c-1.084,0-1.963,0.879-1.963,1.963
	c0,1.085,0.879,1.963,1.963,1.963h12.571v10.028c0,1.084,0.879,1.963,1.963,1.963s1.963-0.879,1.963-1.963v-10.028h48.762
	c1.084,0,1.963-0.878,1.963-1.963c0-1.084-0.878-1.963-1.963-1.963h-10.777l8.279-4.776c0.851,0.728,1.906,1.115,2.991,1.115
	c0.525,0,1.058-0.09,1.575-0.275l10.502-3.742v7.679h-4.719c-1.084,0-1.963,0.879-1.963,1.963c0,1.085,0.879,1.963,1.963,1.963
	h4.719v10.029c0,1.084,0.879,1.963,1.963,1.963c1.085,0,1.963-0.879,1.963-1.963v-10.029h12.572c1.084,0,1.963-0.878,1.963-1.963
	c0-1.084-0.879-1.963-1.963-1.963h-12.572v-9.077l3.492-1.244c0.001,0,0.002-0.001,0.003-0.001c0.063-0.023,0.126-0.05,0.187-0.078
	c0.015-0.008,0.028-0.016,0.043-0.022c0.044-0.022,0.088-0.047,0.13-0.072c0.019-0.012,0.037-0.023,0.056-0.035
	c0.039-0.026,0.078-0.054,0.115-0.083c0.016-0.012,0.031-0.022,0.046-0.034c0.05-0.041,0.1-0.085,0.146-0.131
	c0.002-0.001,0.003-0.003,0.005-0.004l33.156-33.156c1.069,0.604,2.264,0.908,3.459,0.908c1.799,0,3.598-0.685,4.968-2.055
	c2.282-2.283,2.661-5.758,1.14-8.438C1575.877,759.449,1577.059,756.445,1577.059,753.259L1577.059,753.259z M1570.609,747.164
	c1.628,1.628,2.524,3.792,2.524,6.094c0,2.053-0.715,3.994-2.024,5.545l-12.139-12.139
	C1562.353,743.817,1567.427,743.983,1570.609,747.164L1570.609,747.164z M1518.439,805.022l-5.688-5.688l3.348-9.396
	c1.731-0.18,2.962,0.046,3.585,0.67c0.75,0.749,0.927,2.371,0.513,4.69c-0.002,0.011-0.002,0.022-0.004,0.033
	c-0.009,0.058-0.017,0.116-0.021,0.174c-0.002,0.023-0.003,0.047-0.003,0.07c-0.002,0.051-0.002,0.102,0,0.152
	c0.054,1.212,1.162,2.053,2.305,1.848c2.319-0.414,3.941-0.236,4.691,0.513c0.623,0.624,0.85,1.854,0.67,3.585L1518.439,805.022z
	 M1529.942,795.313c-0.803-0.803-1.831-1.348-3.07-1.635l17.506-17.507c0.767-0.767,0.767-2.009,0-2.775s-2.01-0.767-2.776,0
	l-17.506,17.506c-0.286-1.241-0.831-2.267-1.635-3.07c-0.803-0.803-1.832-1.346-3.072-1.632l29.623-29.624l4.705,4.705l-5.706,5.706
	c-0.767,0.767-0.767,2.01,0,2.776s2.009,0.767,2.775,0l5.706-5.706l4.705,4.705l-29.623,29.623
	C1531.288,797.146,1530.745,796.116,1529.942,795.313L1529.942,795.313z M1522.851,743.884v13.484
	c-0.018-0.01-0.035-0.022-0.054-0.033l-23.277-13.451H1522.851z M1461.526,764.209c0.002-1.437,0.778-2.777,2.025-3.498l26.63-15.36
	c1.245-0.718,2.791-0.717,4.035,0.003l26.616,15.38c1.246,0.721,2.02,2.062,2.02,3.499v12.951l-8.654,8.654v-14.351
	c0.001-2.837-1.522-5.479-3.976-6.897l-14.046-8.116c-2.455-1.419-5.507-1.42-7.963-0.004l-14.052,8.106
	c-2.458,1.418-3.985,4.06-3.987,6.895v16.222c-0.001,2.837,1.522,5.479,3.976,6.897l14.045,8.116
	c1.229,0.71,2.606,1.065,3.984,1.065c1.376,0,2.752-0.354,3.979-1.063l14.052-8.105c0.026-0.015,0.051-0.032,0.076-0.047
	l-3.872,10.867c-0.177,0.496-0.265,1.006-0.271,1.51l-11.95,6.895c-1.247,0.718-2.795,0.718-4.039-0.002l-26.616-15.38
	c-1.243-0.719-2.013-2.059-2.012-3.499V764.209z M1510.271,771.486v16.222c0,1.437-0.775,2.775-2.022,3.495l-14.052,8.105
	c-1.246,0.719-2.792,0.718-4.037-0.002l-14.046-8.116c-1.243-0.718-2.015-2.058-2.014-3.497v-16.222
	c0.001-1.437,0.775-2.776,2.022-3.495l14.053-8.105c0.622-0.359,1.319-0.539,2.017-0.539c0.699,0,1.397,0.181,2.021,0.54
	l14.045,8.116C1509.501,768.707,1510.272,770.047,1510.271,771.486L1510.271,771.486z M1461.519,815.296v-13.484
	c0.018,0.011,0.035,0.022,0.054,0.033l23.276,13.452L1461.519,815.296L1461.519,815.296z M1511.032,807.661
	c-0.372,0.133-0.63-0.049-0.751-0.169c-0.12-0.12-0.302-0.377-0.169-0.751l1.181-3.313l3.053,3.052L1511.032,807.661z
	 M1569.805,767.436c-1.208,1.208-3.175,1.208-4.384,0l-0.061-0.061l-14.962-14.963l-0.061-0.06c-1.208-1.209-1.208-3.176,0-4.384
	c0.604-0.604,1.398-0.907,2.192-0.907c0.793,0,1.587,0.303,2.191,0.907l15.083,15.083
	C1571.014,764.26,1571.014,766.227,1569.805,767.436L1569.805,767.436z"/>
</svg>
