<?xml version="1.0" encoding="utf-8"?>
<!-- Generator: Adobe Illustrator 14.0.0, SVG Export Plug-In . SVG Version: 6.00 Build 43363)  -->
<!DOCTYPE svg PUBLIC "-//W3C//DTD SVG 1.1//EN" "http://www.w3.org/Graphics/SVG/1.1/DTD/svg11.dtd">
<svg version="1.1" id="Capa_1" xmlns="http://www.w3.org/2000/svg" xmlns:xlink="http://www.w3.org/1999/xlink" x="0px" y="0px"
	 width="134px" height="138.334px" viewBox="271.341 800.833 134 138.334" enable-background="new 271.341 800.833 134 138.334"
	 xml:space="preserve">
<rect x="287.687" y="842.673" fill="#A576BA" width="9.285" height="36.16"/>
<polygon fill="#A576BA" points="393.451,926.325 384.923,933.143 365.261,916.36 357.001,923.44 345.2,877.156 "/>
<path fill="#45145B" d="M287.681,820.212h0.024c1.445,0,2.604-1.172,2.604-2.617c0-1.446-1.185-2.617-2.629-2.617
	c-1.445,0-2.617,1.171-2.617,2.617C285.064,819.04,286.236,820.212,287.681,820.212z"/>
<path fill="#45145B" d="M299.59,820.212h0.024c1.446,0,2.605-1.172,2.605-2.617c0-1.446-1.185-2.617-2.63-2.617
	s-2.617,1.171-2.617,2.617C296.972,819.04,298.144,820.212,299.59,820.212z"/>
<path fill="#45145B" d="M311.499,820.212h0.024c1.445,0,2.605-1.172,2.605-2.617c0-1.446-1.186-2.617-2.63-2.617
	c-1.445,0-2.617,1.171-2.617,2.617C308.882,819.04,310.053,820.212,311.499,820.212z"/>
<path fill="#45145B" d="M331.993,820.211h36.441c1.445,0,2.617-1.172,2.617-2.617s-1.172-2.616-2.617-2.616h-36.441
	c-1.444,0-2.617,1.171-2.617,2.616S330.548,820.211,331.993,820.211z"/>
<path fill="#45145B" d="M382.305,873.601c-0.688,0-1.364,0.278-1.851,0.767c-0.486,0.486-0.767,1.161-0.767,1.849
	c0,0.689,0.28,1.364,0.767,1.851c0.486,0.487,1.162,0.767,1.851,0.767c0.688,0,1.362-0.279,1.85-0.767
	c0.486-0.486,0.768-1.161,0.768-1.851c0-0.688-0.28-1.362-0.768-1.849C383.668,873.879,382.993,873.601,382.305,873.601z"/>
<path fill="#45145B" d="M327.517,849.522h-3.26c-1.445,0-2.617,1.171-2.617,2.617v18.842c0,1.446,1.172,2.617,2.617,2.617h3.26
	c6.637,0,12.038-5.399,12.038-12.037C339.555,854.923,334.155,849.522,327.517,849.522z M327.517,868.364h-0.643v-13.607h0.643
	c3.752,0,6.804,3.052,6.804,6.805C334.321,865.313,331.269,868.364,327.517,868.364z"/>
<path fill="#45145B" d="M309.826,851.305c-0.358-1.065-1.356-1.782-2.48-1.782s-2.123,0.717-2.48,1.782l-6.34,18.843
	c-0.462,1.37,0.274,2.854,1.645,3.315c1.371,0.462,2.854-0.276,3.315-1.646l0.193-0.574h7.334l0.192,0.574
	c0.368,1.093,1.387,1.783,2.48,1.783c0.276,0,0.558-0.045,0.835-0.138c1.37-0.461,2.106-1.945,1.645-3.315L309.826,851.305z
	 M305.439,866.011l1.906-5.666l1.905,5.666H305.439z"/>
<path fill="#45145B" d="M404.574,915.265l-17.795-17.795l6.272-6.271c0.654-0.656,0.915-1.608,0.683-2.506
	c-0.231-0.896-0.919-1.604-1.81-1.86l-37.884-10.91v-34.252c0-1.445-1.172-2.616-2.617-2.616h-64.904
	c-1.444,0-2.616,1.171-2.616,2.616v39.779c0,1.446,1.172,2.617,2.616,2.617h56.686l4.523,15.702h-68.536
	c-1.443,0-2.617-1.174-2.617-2.617v-65.426h103.113v34.022c0,1.444,1.171,2.615,2.617,2.615c1.444,0,2.617-1.171,2.617-2.615
	v-54.436c0-4.33-3.522-7.852-7.852-7.852h-97.879c-4.33,0-7.852,3.521-7.852,7.852v85.839c0,4.33,3.521,7.852,7.852,7.852h70.043
	l5.481,19.036c0.257,0.891,0.964,1.579,1.86,1.81c0.896,0.231,1.85-0.027,2.505-0.683l6.271-6.271l17.795,17.795
	c0.49,0.491,1.156,0.766,1.85,0.766c0.694,0,1.36-0.274,1.851-0.766l17.726-17.726C405.596,917.942,405.596,916.286,404.574,915.265
	z M279.192,808.696h97.879c1.442,0,2.617,1.173,2.617,2.617v15.179H276.575v-15.179
	C276.575,809.869,277.749,808.696,279.192,808.696z M289.136,878.833v-34.545h59.67v30.127l-4.589-1.322
	c-0.916-0.263-1.902-0.009-2.576,0.665c-0.673,0.674-0.927,1.66-0.664,2.575l0.721,2.5H289.136z M384.998,931.139l-17.793-17.795
	c-0.512-0.512-1.182-0.767-1.851-0.767c-0.671,0-1.341,0.255-1.852,0.767l-4.984,4.984l-11.201-38.895l38.895,11.201l-4.983,4.984
	c-0.491,0.49-0.768,1.156-0.768,1.851c0,0.693,0.276,1.36,0.768,1.851l17.795,17.794L384.998,931.139z"/>
<path fill="#45145B" d="M304.779,894.535c1.446,0,2.617-1.172,2.617-2.616c0-1.445-1.171-2.617-2.617-2.617h-17.886
	c-1.445,0-2.617,1.172-2.617,2.617c0,1.444,1.172,2.616,2.617,2.616H304.779z"/>
<path fill="#45145B" d="M316.967,893.77c0.486-0.486,0.767-1.162,0.767-1.851c0-0.688-0.279-1.363-0.767-1.85
	c-0.486-0.487-1.161-0.768-1.851-0.768c-0.688,0-1.362,0.28-1.85,0.768c-0.486,0.486-0.767,1.162-0.767,1.85
	c0,0.688,0.279,1.364,0.767,1.851c0.487,0.487,1.162,0.767,1.85,0.767C315.805,894.536,316.48,894.257,316.967,893.77z"/>
</svg>
