<?xml version="1.0" encoding="utf-8"?>
<!-- Generator: Adobe Illustrator 14.0.0, SVG Export Plug-In . SVG Version: 6.00 Build 43363)  -->
<!DOCTYPE svg PUBLIC "-//W3C//DTD SVG 1.1//EN" "http://www.w3.org/Graphics/SVG/1.1/DTD/svg11.dtd">
<svg version="1.1" id="Capa_1" xmlns="http://www.w3.org/2000/svg" xmlns:xlink="http://www.w3.org/1999/xlink" x="0px" y="0px"
	 width="134px" height="138px" viewBox="1443.059 726.795 134 138" enable-background="new 1443.059 726.795 134 138"
	 xml:space="preserve">
<rect x="1529.236" y="845.188" fill="#A576BA" width="38.896" height="8.678"/>
<path fill="#A576BA" d="M1476.219,767.552c-0.316-0.279-0.385-0.656-0.354-0.984h-12.341v7.307c1.338-0.593,5.887-0.849,6.176,0.194
	c0.111,0.4,1.183,15.592,1.213,18.881c0.001,0.045-0.002,0.087-0.005,0.129h13.745v-25.803
	C1484.614,767.307,1483.097,773.636,1476.219,767.552z"/>
<g id="cart_路_online_路_shirt_路_ecommerce_路_shopping">
	<path fill="#45145B" d="M1568.485,835.304l1.348-2.032c1.596-2.389,2.447-5.195,2.447-8.068v-23.187
		c0.009-1.642-0.642-3.219-1.805-4.376c-1.712-1.678-4.223-2.247-6.491-1.474v-56.37c-0.011-3.433-2.79-6.213-6.222-6.223h-103.701
		c-3.432,0.01-6.211,2.79-6.222,6.223v99.552c0,1.145,0.929,2.073,2.074,2.073h76.738v14.519c0,1.146,0.929,2.074,2.073,2.074h41.48
		c1.146,0,2.074-0.929,2.074-2.074v-16.592c0-1.146-0.929-2.074-2.074-2.074h-2.074v-0.809
		C1568.134,836.053,1568.257,835.648,1568.485,835.304z M1451.988,739.797c0-1.146,0.929-2.074,2.073-2.074h103.701
		c1.145,0,2.073,0.929,2.073,2.074v10.37h-107.848V739.797z M1451.988,837.274v-82.96h107.848v37.747
		c-1.687-0.594-3.546-0.451-5.122,0.394c-0.236-0.377-0.514-0.725-0.83-1.036c-1.709-1.683-4.22-2.26-6.491-1.494v-8.648
		c0.009-1.642-0.642-3.218-1.805-4.376c-1.301-1.313-3.115-1.979-4.956-1.826c-3.271,0.356-5.732,3.142-5.684,6.431v18.438h-2.074
		c-3.432,0.01-6.212,2.79-6.222,6.223v19.038c-0.001,2.873,0.852,5.68,2.447,8.068l1.348,2.032c0.229,0.345,0.351,0.749,0.353,1.162
		v0.809H1451.988z M1568.132,853.866H1530.8v-12.444h37.332V853.866z M1566.389,830.97l-1.368,2.032
		c-0.681,1.027-1.042,2.232-1.037,3.464v0.809h-29.036v-0.809c0.005-1.231-0.356-2.437-1.037-3.464l-1.369-2.032
		c-1.137-1.708-1.742-3.714-1.742-5.767v-19.038c0-1.146,0.929-2.074,2.074-2.074h2.074v10.369c0,1.146,0.929,2.074,2.074,2.074
		c1.145,0,2.073-0.929,2.073-2.074v-32.955c-0.034-1.131,0.772-2.114,1.888-2.302c0.623-0.055,1.235,0.183,1.659,0.643
		c0.392,0.371,0.61,0.891,0.602,1.431v24.889c0,1.146,0.929,2.074,2.074,2.074s2.074-0.929,2.074-2.074v-10.371
		c0-1.145,0.929-2.073,2.074-2.073c0.56-0.006,1.095,0.229,1.472,0.643c0.393,0.372,0.611,0.891,0.602,1.431v10.371
		c0,1.146,0.929,2.074,2.074,2.074c1.145,0,2.073-0.929,2.073-2.074v-8.297c0-1.146,0.929-2.074,2.075-2.074
		c0.56-0.005,1.095,0.229,1.472,0.644c0.393,0.372,0.611,0.891,0.602,1.431v8.297c0,1.146,0.929,2.074,2.074,2.074
		s2.074-0.929,2.074-2.074v-4.148c0-1.146,0.929-2.074,2.073-2.074c0.561-0.005,1.096,0.229,1.473,0.644
		c0.394,0.37,0.611,0.891,0.602,1.431v23.187C1568.132,827.256,1567.526,829.262,1566.389,830.97z"/>
	<path fill="#45145B" d="M1507.986,770.906h45.628c1.145,0,2.073-0.929,2.073-2.074c0-1.145-0.929-2.073-2.073-2.073h-45.628
		c-1.146,0-2.074,0.929-2.074,2.073C1505.912,769.978,1506.841,770.906,1507.986,770.906z"/>
	<path fill="#45145B" d="M1507.986,779.203h20.739c1.146,0,2.074-0.929,2.074-2.074s-0.928-2.074-2.074-2.074h-20.739
		c-1.146,0-2.074,0.929-2.074,2.074S1506.841,779.203,1507.986,779.203z"/>
	<path fill="#45145B" d="M1520.43,783.35h-12.444c-1.146,0-2.074,0.929-2.074,2.074s0.929,2.074,2.074,2.074h12.444
		c1.146,0,2.074-0.929,2.074-2.074S1521.576,783.35,1520.43,783.35z"/>
	<path fill="#45145B" d="M1460.284,741.87h-2.074c-1.146,0-2.074,0.929-2.074,2.074s0.929,2.074,2.074,2.074h2.074
		c1.146,0,2.074-0.929,2.074-2.074S1461.429,741.87,1460.284,741.87z"/>
	<path fill="#45145B" d="M1470.653,741.87h-2.073c-1.146,0-2.073,0.929-2.073,2.074s0.928,2.074,2.073,2.074h2.073
		c1.146,0,2.074-0.929,2.074-2.074S1471.799,741.87,1470.653,741.87z"/>
	<path fill="#45145B" d="M1481.024,741.87h-2.074c-1.146,0-2.074,0.929-2.074,2.074s0.929,2.074,2.074,2.074h2.074
		c1.145,0,2.073-0.929,2.073-2.074S1482.169,741.87,1481.024,741.87z"/>
	<path fill="#45145B" d="M1500.194,764.747l-8.26-2.074c-0.164-0.042-0.333-0.063-0.503-0.063h-4.186
		c-1.146,0-2.074,0.929-2.074,2.074c0,2.291-1.857,4.147-4.147,4.147c-2.291,0-4.148-1.856-4.148-4.147
		c0-1.146-0.929-2.074-2.074-2.074h-4.197c-0.172,0-0.343,0.021-0.509,0.063l-8.243,2.074c-0.923,0.231-1.569,1.061-1.568,2.012
		v8.296c0,1.146,0.929,2.073,2.075,2.073c0.169,0,0.336-0.021,0.5-0.062l5.721-1.429v18.083c0,1.146,0.929,2.073,2.073,2.073h20.741
		c1.146,0,2.074-0.928,2.074-2.073v-18.083l5.72,1.429c1.111,0.277,2.237-0.399,2.514-1.511c0.042-0.164,0.062-0.332,0.062-0.501
		v-8.296C1501.763,765.807,1501.117,764.979,1500.194,764.747z M1497.615,772.397l-5.72-1.429c-1.11-0.277-2.236,0.399-2.514,1.511
		c-0.041,0.164-0.062,0.331-0.062,0.501v18.666h-16.593V772.98c0-1.146-0.929-2.074-2.074-2.074c-0.169,0-0.337,0.021-0.501,0.063
		l-5.72,1.429v-4.021l6.429-1.617h2.13c1.146,4.436,5.67,7.104,10.106,5.958c2.923-0.754,5.204-3.036,5.959-5.958h2.118l6.44,1.617
		V772.397z"/>
	<circle fill="#45145B" cx="1470.653" cy="828.979" r="4.148"/>
	<circle fill="#45145B" cx="1481.024" cy="828.979" r="4.148"/>
	<path fill="#45145B" d="M1487.246,808.239h-18.39l-0.293-2.332c-0.13-1.037-1.012-1.816-2.057-1.816h-4.148
		c-1.146,0-2.074,0.929-2.074,2.074s0.929,2.074,2.074,2.074h2.316l0.288,2.304v0.061l1.552,12.41c0.13,1.04,1.017,1.82,2.065,1.816
		h14.518c0.893,0,1.685-0.572,1.967-1.418l4.147-12.444c0.362-1.087-0.226-2.261-1.312-2.623
		C1487.688,808.274,1487.469,808.239,1487.246,808.239z M1481.602,820.683h-11.199l-1.037-8.297h14.992L1481.602,820.683z"/>
	<path fill="#45145B" d="M1497.615,812.386h-2.073c-1.145,0-2.073,0.929-2.073,2.074s0.929,2.074,2.073,2.074h2.073
		c1.146,0,2.075-0.929,2.075-2.074S1498.761,812.386,1497.615,812.386z"/>
	<path fill="#45145B" d="M1520.43,812.386h-14.519c-1.146,0-2.074,0.929-2.074,2.074s0.929,2.074,2.074,2.074h14.519
		c1.146,0,2.074-0.929,2.074-2.074S1521.576,812.386,1520.43,812.386z"/>
	<path fill="#45145B" d="M1497.615,820.683h-2.073c-1.145,0-2.073,0.929-2.073,2.074c0,1.145,0.929,2.073,2.073,2.073h2.073
		c1.146,0,2.075-0.929,2.075-2.073C1499.69,821.611,1498.761,820.683,1497.615,820.683z"/>
	<path fill="#45145B" d="M1520.43,820.683h-14.519c-1.146,0-2.074,0.929-2.074,2.074c0,1.145,0.929,2.073,2.074,2.073h14.519
		c1.146,0,2.074-0.929,2.074-2.073C1522.505,821.611,1521.576,820.683,1520.43,820.683z"/>
	<circle fill="#FFFFFF" cx="1470.654" cy="828.979" r="2.171"/>
	<circle fill="#FFFFFF" cx="1481.024" cy="828.979" r="2.171"/>
</g>
</svg>
