<?xml version="1.0" encoding="utf-8"?>
<!-- Generator: Adobe Illustrator 14.0.0, SVG Export Plug-In . SVG Version: 6.00 Build 43363)  -->
<!DOCTYPE svg PUBLIC "-//W3C//DTD SVG 1.1//EN" "http://www.w3.org/Graphics/SVG/1.1/DTD/svg11.dtd">
<svg version="1.1" id="Capa_1" xmlns="http://www.w3.org/2000/svg" xmlns:xlink="http://www.w3.org/1999/xlink" x="0px" y="0px"
	 width="209px" height="74px" viewBox="0 0 209 74" enable-background="new 0 0 209 74" xml:space="preserve">
<g>
	<g>
		<defs>
			<path id="SVGID_1_" d="M43.336,43.448c0,0,9.188,1.042,6.583,7.972c-2.595,6.934-14.688,18.527-31.154,15.061
				c12.587,5.631,29.074,4.576,40.653-8.566c4.328-5.201,1.597-13.6-2.216-14.639c-1.146-0.313-2.852-0.42-4.679-0.42
				C48.261,42.854,43.336,43.448,43.336,43.448"/>
		</defs>
		<clipPath id="SVGID_2_">
			<use xlink:href="#SVGID_1_"  overflow="visible"/>
		</clipPath>
		
			<linearGradient id="SVGID_3_" gradientUnits="userSpaceOnUse" x1="-52.6494" y1="-427.5767" x2="-50.2844" y2="-427.5767" gradientTransform="matrix(0.3198 13.7519 -13.7519 0.3198 -5822.3159 900.6329)">
			<stop  offset="0" style="stop-color:#622280"/>
			<stop  offset="0.3603" style="stop-color:#622280"/>
			<stop  offset="0.4333" style="stop-color:#682A84"/>
			<stop  offset="0.5466" style="stop-color:#794090"/>
			<stop  offset="0.6854" style="stop-color:#9464A3"/>
			<stop  offset="0.7737" style="stop-color:#A87EB1"/>
			<stop  offset="1" style="stop-color:#A87EB1"/>
		</linearGradient>
		<polygon clip-path="url(#SVGID_2_)" fill="url(#SVGID_3_)" points="63.724,41.811 64.429,72.096 18.792,73.154 18.087,42.87 		"/>
	</g>
</g>
<g>
	<g>
		<defs>
			<path id="SVGID_4_" d="M26.008,34.609c0.344,5.2,2.771,8.318,11.262,9.015c8.492,0.69,23.616-0.869,22.061,14.384
				c0,0,5.162-4.924,4.645-14.285c-0.525-9.36-10.413-17.259-21.16-19.339c-1.313-0.253-2.563-0.371-3.741-0.371
				C30.604,24.012,25.703,30.046,26.008,34.609"/>
		</defs>
		<clipPath id="SVGID_5_">
			<use xlink:href="#SVGID_4_"  overflow="visible"/>
		</clipPath>
		
			<linearGradient id="SVGID_6_" gradientUnits="userSpaceOnUse" x1="-57.1167" y1="-434.1738" x2="-54.7501" y2="-434.1738" gradientTransform="matrix(-1.8774 13.9241 -13.9241 -1.8774 -6104.1694 -4.3594)">
			<stop  offset="0" style="stop-color:#3E1052"/>
			<stop  offset="0.1313" style="stop-color:#3E1052"/>
			<stop  offset="0.5" style="stop-color:#622280"/>
			<stop  offset="0.757" style="stop-color:#A46FA8"/>
			<stop  offset="1" style="stop-color:#A46FA8"/>
		</linearGradient>
		<polygon clip-path="url(#SVGID_5_)" fill="url(#SVGID_6_)" points="68.995,24.619 63.8,63.145 21.199,57.4 26.394,18.875 		"/>
	</g>
</g>
<g>
	<g>
		<defs>
			<path id="SVGID_7_" d="M28.605,10.344c-2.08,0.521-21.548,7.918-21.548,7.918s-12.656,8.589-4.071,31.458
				c0,0,0.185-12.335,10.197-22.044c8.79-8.528,20.6-6.44,20.6-6.44s-2.965-10.909-5.037-10.909
				C28.7,10.328,28.654,10.333,28.605,10.344"/>
		</defs>
		<clipPath id="SVGID_8_">
			<use xlink:href="#SVGID_7_"  overflow="visible"/>
		</clipPath>
		
			<linearGradient id="SVGID_9_" gradientUnits="userSpaceOnUse" x1="-150.9575" y1="-404.5801" x2="-148.5909" y2="-404.5801" gradientTransform="matrix(-0.9387 -11.7338 11.7338 -0.9387 4620.5513 -2109.8147)">
			<stop  offset="0" style="stop-color:#83B719"/>
			<stop  offset="0.3994" style="stop-color:#83B719"/>
			<stop  offset="0.8408" style="stop-color:#4C9F3F"/>
			<stop  offset="1" style="stop-color:#4C9F3F"/>
		</linearGradient>
		<polygon clip-path="url(#SVGID_8_)" fill="url(#SVGID_9_)" points="-5.349,52.855 -8.729,10.579 33.532,7.198 36.915,49.473 		"/>
	</g>
</g>
<g>
	<g>
		<defs>
			<path id="SVGID_10_" d="M1.082,27.402c0,0,5.86-7.872,16.085-8.563c3.947-0.268,7.432,0.47,10.609,1.214
				c5.051,1.172,9.329,2.351,13.479-0.523c6.761-4.678,3.769-13.567-2.424-15.943c-1.483-0.571-3.693-0.94-6.313-0.94
				C22.574,2.647,6.625,7.921,1.082,27.402"/>
		</defs>
		<clipPath id="SVGID_11_">
			<use xlink:href="#SVGID_10_"  overflow="visible"/>
		</clipPath>
		
			<linearGradient id="SVGID_12_" gradientUnits="userSpaceOnUse" x1="-124.0933" y1="-398.6758" x2="-121.7255" y2="-398.6758" gradientTransform="matrix(5.4691 -19.6887 19.6887 5.4691 8548.3008 -232.2387)">
			<stop  offset="0" style="stop-color:#FFFFFF"/>
			<stop  offset="0.095" style="stop-color:#FFFFFF"/>
			<stop  offset="0.1199" style="stop-color:#F7FAEF"/>
			<stop  offset="0.2711" style="stop-color:#C6DE95"/>
			<stop  offset="0.3939" style="stop-color:#A2C952"/>
			<stop  offset="0.4825" style="stop-color:#8BBC29"/>
			<stop  offset="0.5279" style="stop-color:#83B719"/>
			<stop  offset="1" style="stop-color:#83B719"/>
		</linearGradient>
		<polygon clip-path="url(#SVGID_11_)" fill="url(#SVGID_12_)" points="-5.302,25.63 4.444,-9.455 54.4,4.421 44.653,39.506 		"/>
	</g>
</g>
<g>
	<g opacity="0.19">
		<g>
			<g>
				<defs>
					<rect id="SVGID_13_" x="27.896" y="24.008" width="18.144" height="5.105"/>
				</defs>
				<clipPath id="SVGID_14_">
					<use xlink:href="#SVGID_13_"  overflow="visible"/>
				</clipPath>
				<path clip-path="url(#SVGID_14_)" fill="#1A171B" d="M27.894,29.114c0,0,3.817,0.042,11.284-1.178
					c3.489-0.568,7.702-2.12,6.719-2.82c-1.123-0.234-4.586-1.451-8.721-1.013C30.741,24.841,27.894,29.114,27.894,29.114"/>
			</g>
		</g>
	</g>
	<path fill="#90BC26" d="M74.975,30.547c0-10.31,7.619-18.384,17.347-18.384c7.926,0,13.948,4.469,16.212,11.731h-7.309
		c-1.698-3.301-4.786-5.587-8.903-5.587c-5.92,0-10.551,5.587-10.551,12.24c0,6.704,4.631,12.292,10.551,12.292
		c5.095,0,8.799-3.608,9.779-7.872h-8.853v-6.246h16.314c0.41,12.39-7.05,20.214-17.242,20.214
		C82.594,48.936,74.975,40.857,74.975,30.547"/>
	<path fill="#90BC26" d="M112.654,10.537h6.844v26.817c0,3.707,1.699,5.028,5.045,4.826v6.096
		c-7.773,0.813-11.889-3.76-11.889-10.921V10.537z"/>
	<path fill="#90BC26" d="M152.491,48.326h-6.433v-2.745c-2.01,2.187-4.891,3.302-8.082,3.302c-7.002,0-12.713-6.094-12.713-13.61
		c0-7.566,5.607-13.764,13.641-13.764c7.977,0,13.587,6.197,13.587,13.764V48.326L152.491,48.326z M138.904,27.806
		c-3.76,0-6.797,3.201-6.797,7.516c0,4.167,3.037,7.366,6.797,7.366c3.755,0,6.793-3.302,6.793-7.366
		C145.697,31.157,142.659,27.806,138.904,27.806"/>
	<path fill="#90BC26" d="M181.669,41.823c1.752,0.153,3.295,0,4.272-0.966c0.67-0.609,1.338-1.828,1.338-5.639
		c0-3.453,0.359-7.416,3.447-10.309c2.213-2.133,5.147-2.998,8.957-2.693v6.502c-1.904-0.204-3.293,0.151-4.271,1.117
		c-0.619,0.66-1.34,1.625-1.34,5.382c0,3.457-0.358,7.773-3.397,10.564c-2.213,2.084-5.25,2.794-9.007,2.542L181.669,41.823
		L181.669,41.823z"/>
	<path fill="#90BC26" d="M202.152,19.323v-3.758c0-1.879,1.545-3.353,3.451-3.353c1.854,0,3.396,1.474,3.396,3.353v3.758H202.152z
		 M209,48.326h-6.793V22.168H209V48.326z"/>
	<path fill="#90BC26" d="M168.691,45.654h-6.635v7.252h-6.439V33.38c0-6.741,5.466-12.228,12.587-12.228
		c7.173,0,12.638,5.487,12.638,12.228C180.842,40.357,175.035,45.654,168.691,45.654 M168.204,27.169
		c-3.364,0-6.146,2.841-6.146,6.354v6.306h6.146c3.415,0,6.196-2.84,6.196-6.306C174.4,30.01,171.619,27.169,168.204,27.169"/>
</g>
</svg>
